<svg width="250" height="136" viewBox="0 0 250 136" fill="none" xmlns="http://www.w3.org/2000/svg">
<path d="M12.1 117.475C12.02 117.615 11.93 117.715 11.83 117.775C11.73 117.835 11.605 117.865 11.455 117.865C11.285 117.865 11.1 117.815 10.9 117.715C10.7 117.605 10.465 117.485 10.195 117.355C9.925 117.225 9.605 117.11 9.235 117.01C8.875 116.9 8.45 116.845 7.96 116.845C7.56 116.845 7.195 116.895 6.865 116.995C6.545 117.085 6.27 117.22 6.04 117.4C5.82 117.57 5.65 117.775 5.53 118.015C5.41 118.245 5.35 118.495 5.35 118.765C5.35 119.125 5.46 119.425 5.68 119.665C5.9 119.905 6.19 120.115 6.55 120.295C6.91 120.465 7.32 120.62 7.78 120.76C8.24 120.9 8.71 121.05 9.19 121.21C9.67 121.37 10.14 121.555 10.6 121.765C11.06 121.975 11.47 122.235 11.83 122.545C12.19 122.845 12.48 123.215 12.7 123.655C12.92 124.085 13.03 124.61 13.03 125.23C13.03 125.95 12.9 126.615 12.64 127.225C12.38 127.835 12 128.365 11.5 128.815C11 129.265 10.375 129.615 9.625 129.865C8.885 130.115 8.035 130.24 7.075 130.24C6.545 130.24 6.03 130.19 5.53 130.09C5.04 130 4.57 129.875 4.12 129.715C3.68 129.545 3.265 129.345 2.875 129.115C2.495 128.885 2.155 128.635 1.855 128.365L2.605 127.135C2.695 126.985 2.805 126.87 2.935 126.79C3.075 126.7 3.245 126.655 3.445 126.655C3.655 126.655 3.86 126.725 4.06 126.865C4.27 126.995 4.51 127.14 4.78 127.3C5.06 127.46 5.395 127.61 5.785 127.75C6.175 127.88 6.66 127.945 7.24 127.945C7.72 127.945 8.135 127.89 8.485 127.78C8.835 127.66 9.125 127.5 9.355 127.3C9.585 127.1 9.755 126.875 9.865 126.625C9.975 126.365 10.03 126.09 10.03 125.8C10.03 125.41 9.92 125.09 9.7 124.84C9.48 124.59 9.185 124.375 8.815 124.195C8.455 124.015 8.04 123.855 7.57 123.715C7.11 123.575 6.64 123.425 6.16 123.265C5.68 123.105 5.205 122.92 4.735 122.71C4.275 122.5 3.86 122.235 3.49 121.915C3.13 121.585 2.84 121.19 2.62 120.73C2.4 120.26 2.29 119.69 2.29 119.02C2.29 118.41 2.41 117.83 2.65 117.28C2.9 116.73 3.26 116.245 3.73 115.825C4.21 115.405 4.795 115.075 5.485 114.835C6.185 114.585 6.99 114.46 7.9 114.46C8.93 114.46 9.865 114.625 10.705 114.955C11.545 115.285 12.25 115.735 12.82 116.305L12.1 117.475ZM22.6757 114.46C23.8057 114.46 24.8257 114.645 25.7357 115.015C26.6557 115.385 27.4357 115.91 28.0757 116.59C28.7257 117.27 29.2257 118.095 29.5757 119.065C29.9257 120.035 30.1007 121.125 30.1007 122.335C30.1007 123.545 29.9257 124.635 29.5757 125.605C29.2257 126.575 28.7257 127.405 28.0757 128.095C27.4357 128.775 26.6557 129.3 25.7357 129.67C24.8257 130.04 23.8057 130.225 22.6757 130.225C21.5357 130.225 20.5057 130.04 19.5857 129.67C18.6757 129.3 17.8957 128.775 17.2457 128.095C16.5957 127.405 16.0957 126.575 15.7457 125.605C15.3957 124.635 15.2207 123.545 15.2207 122.335C15.2207 121.125 15.3957 120.035 15.7457 119.065C16.0957 118.095 16.5957 117.27 17.2457 116.59C17.8957 115.91 18.6757 115.385 19.5857 115.015C20.5057 114.645 21.5357 114.46 22.6757 114.46ZM22.6757 127.705C24.0557 127.705 25.0807 127.245 25.7507 126.325C26.4307 125.395 26.7707 124.07 26.7707 122.35C26.7707 120.63 26.4307 119.305 25.7507 118.375C25.0807 117.435 24.0557 116.965 22.6757 116.965C21.2757 116.965 20.2357 117.435 19.5557 118.375C18.8757 119.305 18.5357 120.63 18.5357 122.35C18.5357 124.07 18.8757 125.395 19.5557 126.325C20.2357 127.245 21.2757 127.705 22.6757 127.705ZM46.9478 117.235V125.92C46.9478 126.47 47.0828 126.89 47.3528 127.18C47.6228 127.47 47.9828 127.615 48.4328 127.615C48.6828 127.615 48.8978 127.585 49.0778 127.525C49.2578 127.455 49.4128 127.385 49.5428 127.315C49.6728 127.235 49.7828 127.165 49.8728 127.105C49.9728 127.035 50.0678 127 50.1578 127C50.3378 127 50.4828 127.1 50.5928 127.3L51.5528 128.875C51.0528 129.315 50.4628 129.655 49.7828 129.895C49.1028 130.125 48.4028 130.24 47.6828 130.24C46.4128 130.24 45.4328 129.885 44.7428 129.175C44.0628 128.455 43.7228 127.445 43.7228 126.145V117.235H37.1078V130H33.8828V117.265L32.3828 117.055C32.1328 117.005 31.9278 116.915 31.7678 116.785C31.6178 116.655 31.5428 116.47 31.5428 116.23V114.91H33.8828V113.62C33.8828 112.75 34.0078 111.97 34.2578 111.28C34.5178 110.59 34.8828 110.005 35.3528 109.525C35.8328 109.045 36.4128 108.68 37.0928 108.43C37.7728 108.17 38.5378 108.04 39.3878 108.04C39.7378 108.04 40.0678 108.065 40.3778 108.115C40.6978 108.165 41.0078 108.24 41.3078 108.34L41.2478 109.96C41.2278 110.23 41.0928 110.39 40.8428 110.44C40.6028 110.49 40.2978 110.515 39.9278 110.515C39.4778 110.515 39.0728 110.57 38.7128 110.68C38.3528 110.78 38.0428 110.955 37.7828 111.205C37.5328 111.455 37.3378 111.785 37.1978 112.195C37.0678 112.605 37.0028 113.115 37.0028 113.725V114.91H43.8428L44.5628 110.455C44.6128 110.285 44.6978 110.15 44.8178 110.05C44.9378 109.94 45.0978 109.885 45.2978 109.885H46.9478V114.91H51.1928V117.235H46.9478ZM75.2315 114.7L70.3265 130H67.7615C67.4615 130 67.2515 129.805 67.1315 129.415L64.0865 119.89C64.0065 119.62 63.9315 119.35 63.8615 119.08C63.8015 118.81 63.7465 118.545 63.6965 118.285C63.5865 118.825 63.4515 119.365 63.2915 119.905L60.2015 129.415C60.0915 129.805 59.8565 130 59.4965 130H57.0515L52.1465 114.7H54.6965C54.9465 114.7 55.1515 114.765 55.3115 114.895C55.4815 115.015 55.5915 115.16 55.6415 115.33L58.1915 124.24C58.2915 124.65 58.3765 125.05 58.4465 125.44C58.5265 125.82 58.5965 126.2 58.6565 126.58C58.7565 126.2 58.8615 125.82 58.9715 125.44C59.0815 125.05 59.1965 124.65 59.3165 124.24L62.1815 115.285C62.2315 115.105 62.3315 114.96 62.4815 114.85C62.6415 114.73 62.8315 114.67 63.0515 114.67H64.4615C64.6915 114.67 64.8865 114.73 65.0465 114.85C65.2065 114.96 65.3115 115.105 65.3615 115.285L68.1515 124.24C68.2715 124.65 68.3815 125.05 68.4815 125.44C68.5915 125.83 68.6915 126.22 68.7815 126.61C68.8515 126.23 68.9265 125.845 69.0065 125.455C69.0865 125.065 69.1815 124.66 69.2915 124.24L71.8865 115.33C71.9465 115.15 72.0565 115 72.2165 114.88C72.3765 114.76 72.5715 114.7 72.8015 114.7H75.2315ZM85.5541 123.31C84.4041 123.35 83.4341 123.445 82.6441 123.595C81.8541 123.735 81.2141 123.92 80.7241 124.15C80.2341 124.37 79.8791 124.635 79.6591 124.945C79.4491 125.255 79.3441 125.595 79.3441 125.965C79.3441 126.325 79.3991 126.635 79.5091 126.895C79.6291 127.145 79.7891 127.355 79.9891 127.525C80.1991 127.685 80.4391 127.805 80.7091 127.885C80.9891 127.955 81.2941 127.99 81.6241 127.99C82.4641 127.99 83.1841 127.835 83.7841 127.525C84.3941 127.205 84.9841 126.745 85.5541 126.145V123.31ZM77.0041 116.83C78.7341 115.22 80.7941 114.415 83.1841 114.415C84.0641 114.415 84.8441 114.56 85.5241 114.85C86.2141 115.13 86.7891 115.53 87.2491 116.05C87.7191 116.57 88.0741 117.19 88.3141 117.91C88.5641 118.62 88.6891 119.41 88.6891 120.28V130H87.2491C86.9391 130 86.7041 129.955 86.5441 129.865C86.3841 129.765 86.2491 129.57 86.1391 129.28L85.8241 128.035C85.4341 128.385 85.0491 128.7 84.6691 128.98C84.2891 129.25 83.8941 129.48 83.4841 129.67C83.0841 129.86 82.6491 130 82.1791 130.09C81.7191 130.19 81.2091 130.24 80.6491 130.24C80.0291 130.24 79.4491 130.155 78.9091 129.985C78.3791 129.815 77.9191 129.56 77.5291 129.22C77.1391 128.87 76.8291 128.44 76.5991 127.93C76.3791 127.42 76.2691 126.82 76.2691 126.13C76.2691 125.54 76.4241 124.965 76.7341 124.405C77.0541 123.845 77.5741 123.345 78.2941 122.905C79.0241 122.455 79.9791 122.085 81.1591 121.795C82.3491 121.505 83.8141 121.34 85.5541 121.3V120.28C85.5541 119.18 85.3191 118.36 84.8491 117.82C84.3791 117.28 83.6891 117.01 82.7791 117.01C82.1591 117.01 81.6391 117.09 81.2191 117.25C80.7991 117.4 80.4341 117.565 80.1241 117.745C79.8141 117.925 79.5391 118.095 79.2991 118.255C79.0591 118.405 78.8041 118.48 78.5341 118.48C78.3141 118.48 78.1241 118.425 77.9641 118.315C77.8141 118.195 77.6891 118.05 77.5891 117.88L77.0041 116.83ZM95.512 117.535C95.992 116.565 96.572 115.805 97.252 115.255C97.932 114.695 98.747 114.415 99.697 114.415C100.027 114.415 100.337 114.455 100.627 114.535C100.917 114.605 101.177 114.715 101.407 114.865L101.182 117.295C101.142 117.465 101.077 117.585 100.987 117.655C100.907 117.715 100.797 117.745 100.657 117.745C100.507 117.745 100.292 117.72 100.012 117.67C99.732 117.61 99.437 117.58 99.127 117.58C98.677 117.58 98.277 117.645 97.927 117.775C97.587 117.905 97.277 118.095 96.997 118.345C96.727 118.595 96.487 118.9 96.277 119.26C96.067 119.62 95.872 120.03 95.692 120.49V130H92.467V114.7H94.342C94.682 114.7 94.917 114.765 95.047 114.895C95.177 115.015 95.267 115.23 95.317 115.54L95.512 117.535ZM113.049 120.625C113.049 120.085 112.969 119.585 112.809 119.125C112.659 118.655 112.434 118.25 112.134 117.91C111.834 117.56 111.459 117.29 111.009 117.1C110.569 116.9 110.059 116.8 109.479 116.8C108.309 116.8 107.389 117.135 106.719 117.805C106.049 118.475 105.624 119.415 105.444 120.625H113.049ZM105.354 122.605C105.394 123.475 105.529 124.23 105.759 124.87C105.989 125.5 106.294 126.025 106.674 126.445C107.064 126.865 107.524 127.18 108.054 127.39C108.594 127.59 109.194 127.69 109.854 127.69C110.484 127.69 111.029 127.62 111.489 127.48C111.949 127.33 112.349 127.17 112.689 127C113.029 126.82 113.319 126.66 113.559 126.52C113.799 126.37 114.019 126.295 114.219 126.295C114.479 126.295 114.679 126.395 114.819 126.595L115.734 127.78C115.354 128.23 114.924 128.61 114.444 128.92C113.964 129.23 113.454 129.485 112.914 129.685C112.374 129.875 111.819 130.01 111.249 130.09C110.679 130.18 110.124 130.225 109.584 130.225C108.524 130.225 107.539 130.05 106.629 129.7C105.729 129.34 104.944 128.815 104.274 128.125C103.614 127.435 103.094 126.58 102.714 125.56C102.344 124.54 102.159 123.365 102.159 122.035C102.159 120.975 102.324 119.985 102.654 119.065C102.994 118.145 103.474 117.345 104.094 116.665C104.724 115.985 105.484 115.45 106.374 115.06C107.274 114.66 108.289 114.46 109.419 114.46C110.359 114.46 111.229 114.615 112.029 114.925C112.829 115.225 113.519 115.67 114.099 116.26C114.679 116.85 115.129 117.575 115.449 118.435C115.779 119.285 115.944 120.255 115.944 121.345C115.944 121.845 115.889 122.18 115.779 122.35C115.669 122.52 115.469 122.605 115.179 122.605H105.354ZM137.237 117.7C137.137 117.83 137.042 117.93 136.952 118C136.862 118.07 136.732 118.105 136.562 118.105C136.392 118.105 136.212 118.045 136.022 117.925C135.842 117.805 135.622 117.675 135.362 117.535C135.112 117.385 134.807 117.25 134.447 117.13C134.087 117.01 133.637 116.95 133.097 116.95C132.397 116.95 131.782 117.075 131.252 117.325C130.732 117.575 130.292 117.935 129.932 118.405C129.582 118.865 129.317 119.43 129.137 120.1C128.967 120.76 128.882 121.505 128.882 122.335C128.882 123.195 128.977 123.96 129.167 124.63C129.357 125.3 129.627 125.865 129.977 126.325C130.337 126.785 130.767 127.135 131.267 127.375C131.777 127.615 132.347 127.735 132.977 127.735C133.597 127.735 134.102 127.66 134.492 127.51C134.882 127.36 135.207 127.195 135.467 127.015C135.727 126.835 135.947 126.67 136.127 126.52C136.317 126.37 136.517 126.295 136.727 126.295C136.987 126.295 137.187 126.395 137.327 126.595L138.242 127.78C137.872 128.23 137.462 128.61 137.012 128.92C136.562 129.23 136.087 129.485 135.587 129.685C135.087 129.875 134.567 130.01 134.027 130.09C133.487 130.18 132.942 130.225 132.392 130.225C131.442 130.225 130.552 130.05 129.722 129.7C128.902 129.34 128.182 128.825 127.562 128.155C126.952 127.475 126.467 126.65 126.107 125.68C125.757 124.7 125.582 123.585 125.582 122.335C125.582 121.205 125.742 120.16 126.062 119.2C126.382 118.23 126.847 117.395 127.457 116.695C128.077 115.995 128.842 115.45 129.752 115.06C130.662 114.66 131.712 114.46 132.902 114.46C134.012 114.46 134.987 114.64 135.827 115C136.677 115.36 137.432 115.87 138.092 116.53L137.237 117.7ZM147.187 114.46C148.317 114.46 149.337 114.645 150.247 115.015C151.167 115.385 151.947 115.91 152.587 116.59C153.237 117.27 153.737 118.095 154.087 119.065C154.437 120.035 154.612 121.125 154.612 122.335C154.612 123.545 154.437 124.635 154.087 125.605C153.737 126.575 153.237 127.405 152.587 128.095C151.947 128.775 151.167 129.3 150.247 129.67C149.337 130.04 148.317 130.225 147.187 130.225C146.047 130.225 145.017 130.04 144.097 129.67C143.187 129.3 142.407 128.775 141.757 128.095C141.107 127.405 140.607 126.575 140.257 125.605C139.907 124.635 139.732 123.545 139.732 122.335C139.732 121.125 139.907 120.035 140.257 119.065C140.607 118.095 141.107 117.27 141.757 116.59C142.407 115.91 143.187 115.385 144.097 115.015C145.017 114.645 146.047 114.46 147.187 114.46ZM147.187 127.705C148.567 127.705 149.592 127.245 150.262 126.325C150.942 125.395 151.282 124.07 151.282 122.35C151.282 120.63 150.942 119.305 150.262 118.375C149.592 117.435 148.567 116.965 147.187 116.965C145.787 116.965 144.747 117.435 144.067 118.375C143.387 119.305 143.047 120.63 143.047 122.35C143.047 124.07 143.387 125.395 144.067 126.325C144.747 127.245 145.787 127.705 147.187 127.705ZM157.711 130V114.7H159.661C160.101 114.7 160.381 114.905 160.501 115.315L160.711 116.65C160.991 116.33 161.281 116.04 161.581 115.78C161.881 115.51 162.201 115.28 162.541 115.09C162.891 114.89 163.261 114.735 163.651 114.625C164.051 114.515 164.481 114.46 164.941 114.46C165.431 114.46 165.881 114.53 166.291 114.67C166.701 114.81 167.061 115.01 167.371 115.27C167.691 115.53 167.966 115.845 168.196 116.215C168.426 116.585 168.616 117 168.766 117.46C168.996 116.93 169.286 116.475 169.636 116.095C169.986 115.715 170.376 115.405 170.806 115.165C171.236 114.925 171.691 114.75 172.171 114.64C172.661 114.52 173.156 114.46 173.656 114.46C174.476 114.46 175.206 114.59 175.846 114.85C176.496 115.11 177.041 115.49 177.481 115.99C177.931 116.48 178.271 117.085 178.501 117.805C178.731 118.525 178.846 119.345 178.846 120.265V130H175.621V120.265C175.621 119.185 175.386 118.375 174.916 117.835C174.456 117.285 173.771 117.01 172.861 117.01C172.451 117.01 172.066 117.08 171.706 117.22C171.346 117.36 171.031 117.565 170.761 117.835C170.491 118.105 170.276 118.445 170.116 118.855C169.966 119.255 169.891 119.725 169.891 120.265V130H166.666V120.265C166.666 119.145 166.441 118.325 165.991 117.805C165.541 117.275 164.881 117.01 164.011 117.01C163.411 117.01 162.856 117.165 162.346 117.475C161.836 117.775 161.366 118.19 160.936 118.72V130H157.711ZM185.838 126.16C186.288 126.74 186.778 127.15 187.308 127.39C187.848 127.62 188.443 127.735 189.093 127.735C190.353 127.735 191.333 127.275 192.033 126.355C192.743 125.435 193.098 124.065 193.098 122.245C193.098 121.305 193.018 120.505 192.858 119.845C192.698 119.175 192.468 118.63 192.168 118.21C191.868 117.79 191.503 117.485 191.073 117.295C190.643 117.105 190.158 117.01 189.618 117.01C188.798 117.01 188.088 117.19 187.488 117.55C186.898 117.9 186.348 118.405 185.838 119.065V126.16ZM185.673 116.92C186.313 116.17 187.038 115.565 187.848 115.105C188.668 114.645 189.618 114.415 190.698 114.415C191.558 114.415 192.338 114.59 193.038 114.94C193.738 115.28 194.338 115.78 194.838 116.44C195.338 117.1 195.723 117.92 195.993 118.9C196.273 119.87 196.413 120.985 196.413 122.245C196.413 123.375 196.258 124.43 195.948 125.41C195.648 126.38 195.213 127.225 194.643 127.945C194.073 128.655 193.383 129.215 192.573 129.625C191.763 130.025 190.848 130.225 189.828 130.225C188.928 130.225 188.163 130.08 187.533 129.79C186.913 129.5 186.348 129.1 185.838 128.59V135.085H182.613V114.7H184.563C185.003 114.7 185.283 114.905 185.403 115.315L185.673 116.92ZM207.722 123.31C206.572 123.35 205.602 123.445 204.812 123.595C204.022 123.735 203.382 123.92 202.892 124.15C202.402 124.37 202.047 124.635 201.827 124.945C201.617 125.255 201.512 125.595 201.512 125.965C201.512 126.325 201.567 126.635 201.677 126.895C201.797 127.145 201.957 127.355 202.157 127.525C202.367 127.685 202.607 127.805 202.877 127.885C203.157 127.955 203.462 127.99 203.792 127.99C204.632 127.99 205.352 127.835 205.952 127.525C206.562 127.205 207.152 126.745 207.722 126.145V123.31ZM199.172 116.83C200.902 115.22 202.962 114.415 205.352 114.415C206.232 114.415 207.012 114.56 207.692 114.85C208.382 115.13 208.957 115.53 209.417 116.05C209.887 116.57 210.242 117.19 210.482 117.91C210.732 118.62 210.857 119.41 210.857 120.28V130H209.417C209.107 130 208.872 129.955 208.712 129.865C208.552 129.765 208.417 129.57 208.307 129.28L207.992 128.035C207.602 128.385 207.217 128.7 206.837 128.98C206.457 129.25 206.062 129.48 205.652 129.67C205.252 129.86 204.817 130 204.347 130.09C203.887 130.19 203.377 130.24 202.817 130.24C202.197 130.24 201.617 130.155 201.077 129.985C200.547 129.815 200.087 129.56 199.697 129.22C199.307 128.87 198.997 128.44 198.767 127.93C198.547 127.42 198.437 126.82 198.437 126.13C198.437 125.54 198.592 124.965 198.902 124.405C199.222 123.845 199.742 123.345 200.462 122.905C201.192 122.455 202.147 122.085 203.327 121.795C204.517 121.505 205.982 121.34 207.722 121.3V120.28C207.722 119.18 207.487 118.36 207.017 117.82C206.547 117.28 205.857 117.01 204.947 117.01C204.327 117.01 203.807 117.09 203.387 117.25C202.967 117.4 202.602 117.565 202.292 117.745C201.982 117.925 201.707 118.095 201.467 118.255C201.227 118.405 200.972 118.48 200.702 118.48C200.482 118.48 200.292 118.425 200.132 118.315C199.982 118.195 199.857 118.05 199.757 117.88L199.172 116.83ZM217.65 116.725C217.98 116.385 218.32 116.08 218.67 115.81C219.03 115.53 219.41 115.29 219.81 115.09C220.21 114.89 220.635 114.735 221.085 114.625C221.535 114.515 222.025 114.46 222.555 114.46C223.395 114.46 224.13 114.6 224.76 114.88C225.4 115.16 225.935 115.555 226.365 116.065C226.805 116.575 227.135 117.19 227.355 117.91C227.575 118.62 227.685 119.405 227.685 120.265V130H224.475V120.265C224.475 119.235 224.235 118.435 223.755 117.865C223.285 117.295 222.565 117.01 221.595 117.01C220.875 117.01 220.205 117.175 219.585 117.505C218.975 117.835 218.4 118.285 217.86 118.855V130H214.635V114.7H216.585C217.025 114.7 217.305 114.905 217.425 115.315L217.65 116.725ZM244.645 114.7L236.215 134.35C236.105 134.58 235.97 134.76 235.81 134.89C235.66 135.02 235.425 135.085 235.105 135.085H232.72L235.54 128.965L229.3 114.7H232.105C232.375 114.7 232.58 114.765 232.72 114.895C232.87 115.015 232.98 115.16 233.05 115.33L236.695 124.015C236.785 124.265 236.865 124.515 236.935 124.765C237.015 125.005 237.09 125.255 237.16 125.515C237.24 125.255 237.32 125 237.4 124.75C237.48 124.5 237.57 124.25 237.67 124L241.165 115.33C241.235 115.15 241.35 115 241.51 114.88C241.68 114.76 241.865 114.7 242.065 114.7H244.645Z" fill="white"/>
<path d="M166.519 86.7016C162.429 89.7441 157.471 91.3303 152.41 91.2154C144.539 91.2154 136.87 89.1512 132.739 86.4264C133.306 84.6511 134.264 81.2382 134.656 79.2841L143.877 35.1644C144.642 31.821 145.094 28.4112 145.227 24.9808C145.251 23.6993 145.124 22.4195 144.849 21.1688L158.242 16.9578C158.536 18.3405 158.663 19.7547 158.62 21.1688C158.574 24.2244 158.253 27.2692 157.662 30.2652L156.028 38.1919C155.578 40.4808 154.969 42.7342 154.205 44.9351C155.881 42.9552 157.952 41.3635 160.281 40.2669C162.61 39.1703 165.142 38.5942 167.707 38.5773C176.833 38.5773 180.857 45.1415 180.857 55.9995C180.857 68.3161 175.767 80.0685 166.559 86.7016H166.519ZM162.968 49.2425C159.039 49.2425 154.867 52.5728 152.315 57.0729L147.522 79.3667C149.405 80.9071 151.783 81.6774 154.192 81.5272C156.973 81.5272 160.43 78.885 162.293 75.6648C164.993 70.7657 166.897 59.7151 166.897 55.793C166.897 51.4994 165.654 49.2425 163.062 49.2425H162.968ZM205.874 34.1873C203.775 34.1727 201.767 33.3096 200.291 31.7873C198.815 30.265 197.992 28.208 198.003 26.068C198.012 24.9933 198.229 23.931 198.641 22.9417C199.053 21.9525 199.652 21.0558 200.405 20.3029C201.157 19.5501 202.048 18.9558 203.026 18.5542C204.004 18.1526 205.05 17.9515 206.104 17.9624C207.138 17.9713 208.159 18.1884 209.11 18.6011C210.061 19.0139 210.923 19.6141 211.645 20.3673C212.368 21.1206 212.938 22.012 213.321 22.9903C213.705 23.9686 213.895 25.0145 213.881 26.068C213.882 27.1347 213.678 28.1913 213.278 29.1772C212.878 30.1631 212.292 31.0589 211.551 31.8132C210.811 32.5676 209.933 33.1655 208.965 33.5729C207.998 33.9803 206.962 34.1891 205.915 34.1873H205.874ZM198.962 89.9493H186.109L196.37 40.7516L209.614 38.6873L198.962 89.9493ZM247.35 39.8571L242.746 48.8572H234.2L229.015 73.9996C228.697 75.4402 228.538 76.9128 228.543 78.3896C228.543 81.1419 229.974 82.0227 232.85 82.0227C234.493 81.9514 236.115 81.6171 237.656 81.0318V88.9585C234.164 90.3437 230.454 91.0711 226.707 91.1053C219.322 91.1053 215.096 87.3897 215.096 82.5043C215.109 80.3353 215.335 78.1731 215.771 76.0501L221.428 48.8572H216.54L218.458 39.8571H223.358C224.022 35.8344 225.016 31.8755 226.329 28.0221L239.83 24.6918C238.399 29.2882 236.954 34.7653 235.901 39.8296L247.35 39.8571Z" fill="white"/>
<path d="M166.519 86.7016C162.429 89.7441 157.471 91.3303 152.41 91.2154C144.539 91.2154 136.87 89.1512 132.739 86.4264C133.306 84.6511 134.264 81.2382 134.656 79.2841L143.877 35.1644C144.642 31.821 145.094 28.4112 145.227 24.9808C145.251 23.6993 145.124 22.4195 144.849 21.1688L158.242 16.9578C158.536 18.3405 158.663 19.7547 158.62 21.1688C158.574 24.2244 158.253 27.2692 157.662 30.2652L156.028 38.1919C155.578 40.4808 154.969 42.7342 154.205 44.9351C155.881 42.9552 157.952 41.3635 160.281 40.2669C162.61 39.1703 165.142 38.5942 167.707 38.5773C176.833 38.5773 180.857 45.1415 180.857 55.9995C180.857 68.3161 175.767 80.0685 166.559 86.7016H166.519ZM162.968 49.2425C159.039 49.2425 154.867 52.5728 152.315 57.0729L147.522 79.3667C149.405 80.9071 151.783 81.6774 154.192 81.5272C156.973 81.5272 160.43 78.885 162.293 75.6648C164.993 70.7657 166.897 59.7151 166.897 55.793C166.897 51.4994 165.654 49.2425 163.062 49.2425H162.968ZM205.874 34.1873C203.775 34.1727 201.767 33.3096 200.291 31.7873C198.815 30.265 197.992 28.208 198.003 26.068C198.012 24.9933 198.229 23.931 198.641 22.9417C199.053 21.9525 199.652 21.0558 200.405 20.3029C201.157 19.5501 202.048 18.9558 203.026 18.5542C204.004 18.1526 205.05 17.9515 206.104 17.9624C207.138 17.9713 208.159 18.1884 209.11 18.6011C210.061 19.0139 210.923 19.6141 211.645 20.3673C212.368 21.1206 212.938 22.012 213.321 22.9903C213.705 23.9686 213.895 25.0145 213.881 26.068C213.882 27.1347 213.678 28.1913 213.278 29.1772C212.878 30.1631 212.292 31.0589 211.551 31.8132C210.811 32.5676 209.933 33.1655 208.965 33.5729C207.998 33.9803 206.962 34.1891 205.915 34.1873H205.874ZM198.962 89.9493H186.109L196.37 40.7516L209.614 38.6873L198.962 89.9493ZM247.35 39.8571L242.746 48.8572H234.2L229.015 73.9996C228.697 75.4402 228.538 76.9128 228.543 78.3896C228.543 81.1419 229.974 82.0227 232.85 82.0227C234.493 81.9514 236.115 81.6171 237.656 81.0318V88.9585C234.164 90.3437 230.454 91.0711 226.707 91.1053C219.322 91.1053 215.096 87.3897 215.096 82.5043C215.109 80.3353 215.335 78.1731 215.771 76.0501L221.428 48.8572H216.54L218.458 39.8571H223.358C224.022 35.8344 225.016 31.8755 226.329 28.0221L239.83 24.6918C238.399 29.2882 236.954 34.7653 235.901 39.8296L247.35 39.8571Z" stroke="black"/>
<path d="M64.6998 4.43904C41.527 15.3188 30.4414 28.3227 24.188 39.965C24.0526 40.4007 24.3233 40.9726 24.6211 40.6731C31.2941 36.9693 37.5475 35.1038 41.8112 35.1038C51.9087 35.0494 60.9098 44.05 61.0046 57.6667C61.0046 71.8144 54.2368 83.4022 41.3916 89.8429C36.6477 92.1756 31.4567 93.4439 26.1777 93.5603C7.83707 93.5467 0 80.393 0 65.9456C0 35.6213 29.3044 9.73593 63.1432 0.0136167C63.847 0.285951 65.2683 3.86714 64.6998 4.43904ZM20.0596 49.4967C18.0924 54.9538 17.0803 60.7127 17.0683 66.5175C17.0683 80.8151 22.3336 87.6234 30.1571 87.6234C38.6845 87.6234 44.6672 75.668 44.6672 63.1134C44.5319 50.0958 39.4154 43.9411 30.8881 43.9411C28.0366 44.03 25.2495 44.8151 22.7667 46.2287C21.5765 47.0516 20.6388 48.193 20.0596 49.5239V49.4967ZM129.697 4.43904C106.511 15.3052 95.4119 28.3227 89.1585 39.965C89.0231 40.3871 89.2938 40.959 89.5916 40.6731C96.2646 36.9557 102.518 35.0902 106.782 35.0902C116.879 35.0357 125.88 44.05 125.975 57.6667C125.975 71.828 119.207 83.4158 106.362 89.8565C101.617 92.1845 96.4262 93.4482 91.1482 93.5603C72.8075 93.5331 64.9705 80.3793 64.9705 65.9456C64.9705 35.6076 94.2749 9.72232 128.114 0C128.831 0.285951 130.252 3.86714 129.684 4.43904H129.697ZM85.0437 49.4967C83.0689 54.9518 82.0566 60.712 82.0523 66.5175C82.0523 80.8151 87.3176 87.6234 95.1276 87.6234C103.655 87.6234 109.638 75.668 109.638 63.1134C109.489 50.1094 104.372 43.9547 95.845 43.9547C92.9936 44.0437 90.2064 44.8287 87.7237 46.2423C86.529 47.0603 85.5901 48.2031 85.0166 49.5375L85.0437 49.4967Z" fill="white"/>
<path d="M64.6998 4.43904C41.527 15.3188 30.4414 28.3227 24.188 39.965C24.0526 40.4007 24.3233 40.9726 24.6211 40.6731C31.2941 36.9693 37.5475 35.1038 41.8112 35.1038C51.9087 35.0494 60.9098 44.05 61.0046 57.6667C61.0046 71.8144 54.2368 83.4022 41.3916 89.8429C36.6477 92.1756 31.4567 93.4439 26.1777 93.5603C7.83707 93.5467 0 80.393 0 65.9456C0 35.6213 29.3044 9.73593 63.1432 0.0136167C63.847 0.285951 65.2683 3.86714 64.6998 4.43904ZM20.0596 49.4967C18.0924 54.9538 17.0803 60.7127 17.0683 66.5175C17.0683 80.8151 22.3336 87.6234 30.1571 87.6234C38.6845 87.6234 44.6672 75.668 44.6672 63.1134C44.5319 50.0958 39.4154 43.9411 30.8881 43.9411C28.0366 44.03 25.2495 44.8151 22.7667 46.2287C21.5765 47.0516 20.6388 48.193 20.0596 49.5239V49.4967ZM129.697 4.43904C106.511 15.3052 95.4119 28.3227 89.1585 39.965C89.0231 40.3871 89.2938 40.959 89.5916 40.6731C96.2646 36.9557 102.518 35.0902 106.782 35.0902C116.879 35.0357 125.88 44.05 125.975 57.6667C125.975 71.828 119.207 83.4158 106.362 89.8565C101.617 92.1845 96.4262 93.4482 91.1482 93.5603C72.8075 93.5331 64.9705 80.3793 64.9705 65.9456C64.9705 35.6076 94.2749 9.72232 128.114 0C128.831 0.285951 130.252 3.86714 129.684 4.43904H129.697ZM85.0437 49.4967C83.0689 54.9518 82.0566 60.712 82.0523 66.5175C82.0523 80.8151 87.3176 87.6234 95.1276 87.6234C103.655 87.6234 109.638 75.668 109.638 63.1134C109.489 50.1094 104.372 43.9547 95.845 43.9547C92.9936 44.0437 90.2064 44.8287 87.7237 46.2423C86.529 47.0603 85.5901 48.2031 85.0166 49.5375L85.0437 49.4967Z" stroke="black"/>
</svg>
